<svg width="59" height="59" viewBox="0 0 59 59" fill="none" xmlns="http://www.w3.org/2000/svg">
<circle cx="43" cy="43" r="16" fill="#C0E1FC"/>
<path d="M27 49.5C23.925 49.5 21.0187 48.909 18.2812 47.727C15.5437 46.5465 13.1535 44.934 11.1105 42.8895C9.066 40.8465 7.4535 38.4562 6.273 35.7188C5.091 32.9813 4.5 30.075 4.5 27C4.5 23.8875 5.091 20.9722 6.273 18.2542C7.4535 15.5347 9.066 13.1535 11.1105 11.1105C13.1535 9.066 15.5437 7.45275 18.2812 6.27075C21.0187 5.09025 23.925 4.5 27 4.5C30.1125 4.5 33.0278 5.09025 35.7458 6.27075C38.4653 7.45275 40.8465 9.066 42.8895 11.1105C44.934 13.1535 46.5465 15.5347 47.727 18.2542C48.909 20.9722 49.5 23.8875 49.5 27C49.5 30.075 48.909 32.9813 47.727 35.7188C46.5465 38.4562 44.934 40.8465 42.8895 42.8895C40.8465 44.934 38.4653 46.5465 35.7458 47.727C33.0278 48.909 30.1125 49.5 27 49.5ZM35.8875 18H42.525C41.4375 16.125 40.0778 14.4937 38.4458 13.1062C36.8153 11.7187 34.95 10.6875 32.85 10.0125C33.525 11.25 34.116 12.534 34.623 13.8645C35.1285 15.1965 35.55 16.575 35.8875 18ZM22.725 18H31.275C30.825 16.35 30.2437 14.7938 29.5312 13.3313C28.8188 11.8688 27.975 10.4625 27 9.1125C26.025 10.4625 25.1812 11.8688 24.4688 13.3313C23.7563 14.7938 23.175 16.35 22.725 18ZM9.5625 31.5H17.2125C17.1 30.75 17.0153 30.009 16.9583 29.277C16.9028 28.5465 16.875 27.7875 16.875 27C16.875 26.2125 16.9028 25.4535 16.9583 24.723C17.0153 23.991 17.1 23.25 17.2125 22.5H9.5625C9.375 23.25 9.234 23.991 9.1395 24.723C9.0465 25.4535 9 26.2125 9 27C9 27.7875 9.0465 28.5465 9.1395 29.277C9.234 30.009 9.375 30.75 9.5625 31.5ZM21.15 43.9875C20.475 42.75 19.8847 41.4652 19.3792 40.1333C18.8722 38.8027 18.45 37.425 18.1125 36H11.475C12.5625 37.875 13.9215 39.5062 15.552 40.8937C17.184 42.2812 19.05 43.3125 21.15 43.9875ZM11.475 18H18.1125C18.45 16.575 18.8722 15.1965 19.3792 13.8645C19.8847 12.534 20.475 11.25 21.15 10.0125C19.05 10.6875 17.184 11.7187 15.552 13.1062C13.9215 14.4937 12.5625 16.125 11.475 18ZM27 44.8875C27.975 43.5375 28.8188 42.1313 29.5312 40.6688C30.2437 39.2063 30.825 37.65 31.275 36H22.725C23.175 37.65 23.7563 39.2063 24.4688 40.6688C25.1812 42.1313 26.025 43.5375 27 44.8875ZM21.7125 31.5H32.2875C32.4 30.75 32.4848 30.009 32.5417 29.277C32.5972 28.5465 32.625 27.7875 32.625 27C32.625 26.2125 32.5972 25.4535 32.5417 24.723C32.4848 23.991 32.4 23.25 32.2875 22.5H21.7125C21.6 23.25 21.516 23.991 21.4605 24.723C21.4035 25.4535 21.375 26.2125 21.375 27C21.375 27.7875 21.4035 28.5465 21.4605 29.277C21.516 30.009 21.6 30.75 21.7125 31.5ZM32.85 43.9875C34.95 43.3125 36.8153 42.2812 38.4458 40.8937C40.0778 39.5062 41.4375 37.875 42.525 36H35.8875C35.55 37.425 35.1285 38.8027 34.623 40.1333C34.116 41.4652 33.525 42.75 32.85 43.9875ZM36.7875 31.5H44.4375C44.625 30.75 44.766 30.009 44.8605 29.277C44.9535 28.5465 45 27.7875 45 27C45 26.2125 44.9535 25.4535 44.8605 24.723C44.766 23.991 44.625 23.25 44.4375 22.5H36.7875C36.9 23.25 36.984 23.991 37.0395 24.723C37.0965 25.4535 37.125 26.2125 37.125 27C37.125 27.7875 37.0965 28.5465 37.0395 29.277C36.984 30.009 36.9 30.75 36.7875 31.5Z" fill="#237CC4"/>
</svg>
