<svg width="752" height="31" viewBox="0 0 752 31" fill="none" xmlns="http://www.w3.org/2000/svg">
<path d="M12 22.5557L4.5 15.0557L6.615 12.9257L12 18.3107L23.385 6.92566L25.5 9.05566M15 0.0556641C13.0302 0.0556641 11.0796 0.443651 9.25975 1.19747C7.43986 1.95129 5.78628 3.05618 4.3934 4.44906C1.58035 7.26211 0 11.0774 0 15.0557C0 19.0339 1.58035 22.8492 4.3934 25.6623C5.78628 27.0551 7.43986 28.16 9.25975 28.9139C11.0796 29.6677 13.0302 30.0557 15 30.0557C18.9782 30.0557 22.7936 28.4753 25.6066 25.6623C28.4196 22.8492 30 19.0339 30 15.0557C30 13.0858 29.612 11.1353 28.8582 9.31541C28.1044 7.49553 26.9995 5.84194 25.6066 4.44906C24.2137 3.05618 22.5601 1.95129 20.7403 1.19747C18.9204 0.443651 16.9698 0.0556641 15 0.0556641Z" fill="#8CFB82"/>
<path d="M56.1506 19.9875V17.0812L63.4375 5.60112H65.9432V9.62385H64.4602L59.8665 16.8937V17.0301H70.2216V19.9875H56.1506ZM64.5284 23.0557V19.1011L64.5966 17.8142V5.60112H68.0568V23.0557H64.5284ZM79.5241 23.4392C78.0582 23.4335 76.7969 23.0727 75.7401 22.3568C74.6889 21.6409 73.8793 20.604 73.3111 19.246C72.7486 17.8881 72.4702 16.2545 72.4759 14.3454C72.4759 12.442 72.7571 10.8199 73.3196 9.47896C73.8878 8.13805 74.6974 7.11816 75.7486 6.4193C76.8054 5.71475 78.0639 5.36248 79.5241 5.36248C80.9844 5.36248 82.2401 5.71475 83.2912 6.4193C84.348 7.12385 85.1605 8.14657 85.7287 9.48748C86.2969 10.8227 86.5781 12.442 86.5724 14.3454C86.5724 16.2602 86.2884 17.8966 85.7202 19.2545C85.1577 20.6125 84.3509 21.6494 83.2997 22.3653C82.2486 23.0812 80.9901 23.4392 79.5241 23.4392ZM79.5241 20.3795C80.5241 20.3795 81.3224 19.8767 81.919 18.871C82.5156 17.8653 82.8111 16.3568 82.8054 14.3454C82.8054 13.0216 82.669 11.9193 82.3963 11.0386C82.1293 10.1579 81.7486 9.496 81.2543 9.05282C80.7656 8.60964 80.1889 8.38805 79.5241 8.38805C78.5298 8.38805 77.7344 8.88521 77.1378 9.87953C76.5412 10.8738 76.2401 12.3625 76.2344 14.3454C76.2344 15.6863 76.3679 16.8057 76.6349 17.7034C76.9077 18.5954 77.2912 19.2659 77.7855 19.7148C78.2798 20.1579 78.8594 20.3795 79.5241 20.3795ZM96.0476 23.4392C94.5817 23.4335 93.3203 23.0727 92.2635 22.3568C91.2124 21.6409 90.4027 20.604 89.8345 19.246C89.272 17.8881 88.9936 16.2545 88.9993 14.3454C88.9993 12.442 89.2805 10.8199 89.843 9.47896C90.4112 8.13805 91.2209 7.11816 92.272 6.4193C93.3288 5.71475 94.5874 5.36248 96.0476 5.36248C97.5078 5.36248 98.7635 5.71475 99.8146 6.4193C100.871 7.12385 101.684 8.14657 102.252 9.48748C102.82 10.8227 103.102 12.442 103.096 14.3454C103.096 16.2602 102.812 17.8966 102.244 19.2545C101.681 20.6125 100.874 21.6494 99.8232 22.3653C98.772 23.0812 97.5135 23.4392 96.0476 23.4392ZM96.0476 20.3795C97.0476 20.3795 97.8459 19.8767 98.4425 18.871C99.0391 17.8653 99.3345 16.3568 99.3288 14.3454C99.3288 13.0216 99.1925 11.9193 98.9197 11.0386C98.6527 10.1579 98.272 9.496 97.7777 9.05282C97.2891 8.60964 96.7124 8.38805 96.0476 8.38805C95.0533 8.38805 94.2578 8.88521 93.6612 9.87953C93.0646 10.8738 92.7635 12.3625 92.7578 14.3454C92.7578 15.6863 92.8913 16.8057 93.1584 17.7034C93.4311 18.5954 93.8146 19.2659 94.3089 19.7148C94.8033 20.1579 95.3828 20.3795 96.0476 20.3795ZM109.004 20.6693L108.911 21.6068C108.837 22.3568 108.695 23.104 108.484 23.8483C108.28 24.5983 108.064 25.2773 107.837 25.8852C107.615 26.4932 107.436 26.9704 107.3 27.317H104.947C105.033 26.9818 105.149 26.5131 105.297 25.9108C105.445 25.3142 105.584 24.6437 105.714 23.8994C105.845 23.1551 105.928 22.3966 105.962 21.6238L106.004 20.6693H109.004ZM118.43 23.4392C116.964 23.4335 115.703 23.0727 114.646 22.3568C113.595 21.6409 112.786 20.604 112.217 19.246C111.655 17.8881 111.376 16.2545 111.382 14.3454C111.382 12.442 111.663 10.8199 112.226 9.47896C112.794 8.13805 113.604 7.11816 114.655 6.4193C115.712 5.71475 116.97 5.36248 118.43 5.36248C119.891 5.36248 121.146 5.71475 122.197 6.4193C123.254 7.12385 124.067 8.14657 124.635 9.48748C125.203 10.8227 125.484 12.442 125.479 14.3454C125.479 16.2602 125.195 17.8966 124.626 19.2545C124.064 20.6125 123.257 21.6494 122.206 22.3653C121.155 23.0812 119.896 23.4392 118.43 23.4392ZM118.43 20.3795C119.43 20.3795 120.229 19.8767 120.825 18.871C121.422 17.8653 121.717 16.3568 121.712 14.3454C121.712 13.0216 121.575 11.9193 121.303 11.0386C121.036 10.1579 120.655 9.496 120.161 9.05282C119.672 8.60964 119.095 8.38805 118.43 8.38805C117.436 8.38805 116.641 8.88521 116.044 9.87953C115.447 10.8738 115.146 12.3625 115.141 14.3454C115.141 15.6863 115.274 16.8057 115.541 17.7034C115.814 18.5954 116.197 19.2659 116.692 19.7148C117.186 20.1579 117.766 20.3795 118.43 20.3795ZM134.954 23.4392C133.488 23.4335 132.227 23.0727 131.17 22.3568C130.119 21.6409 129.309 20.604 128.741 19.246C128.178 17.8881 127.9 16.2545 127.906 14.3454C127.906 12.442 128.187 10.8199 128.749 9.47896C129.317 8.13805 130.127 7.11816 131.178 6.4193C132.235 5.71475 133.494 5.36248 134.954 5.36248C136.414 5.36248 137.67 5.71475 138.721 6.4193C139.778 7.12385 140.59 8.14657 141.158 9.48748C141.727 10.8227 142.008 12.442 142.002 14.3454C142.002 16.2602 141.718 17.8966 141.15 19.2545C140.587 20.6125 139.781 21.6494 138.729 22.3653C137.678 23.0812 136.42 23.4392 134.954 23.4392ZM134.954 20.3795C135.954 20.3795 136.752 19.8767 137.349 18.871C137.945 17.8653 138.241 16.3568 138.235 14.3454C138.235 13.0216 138.099 11.9193 137.826 11.0386C137.559 10.1579 137.178 9.496 136.684 9.05282C136.195 8.60964 135.619 8.38805 134.954 8.38805C133.96 8.38805 133.164 8.88521 132.567 9.87953C131.971 10.8738 131.67 12.3625 131.664 14.3454C131.664 15.6863 131.798 16.8057 132.065 17.7034C132.337 18.5954 132.721 19.2659 133.215 19.7148C133.71 20.1579 134.289 20.3795 134.954 20.3795ZM151.477 23.4392C150.011 23.4335 148.75 23.0727 147.693 22.3568C146.642 21.6409 145.832 20.604 145.264 19.246C144.702 17.8881 144.423 16.2545 144.429 14.3454C144.429 12.442 144.71 10.8199 145.273 9.47896C145.841 8.13805 146.651 7.11816 147.702 6.4193C148.759 5.71475 150.017 5.36248 151.477 5.36248C152.938 5.36248 154.193 5.71475 155.244 6.4193C156.301 7.12385 157.114 8.14657 157.682 9.48748C158.25 10.8227 158.531 12.442 158.526 14.3454C158.526 16.2602 158.241 17.8966 157.673 19.2545C157.111 20.6125 156.304 21.6494 155.253 22.3653C154.202 23.0812 152.943 23.4392 151.477 23.4392ZM151.477 20.3795C152.477 20.3795 153.276 19.8767 153.872 18.871C154.469 17.8653 154.764 16.3568 154.759 14.3454C154.759 13.0216 154.622 11.9193 154.349 11.0386C154.082 10.1579 153.702 9.496 153.207 9.05282C152.719 8.60964 152.142 8.38805 151.477 8.38805C150.483 8.38805 149.688 8.88521 149.091 9.87953C148.494 10.8738 148.193 12.3625 148.188 14.3454C148.188 15.6863 148.321 16.8057 148.588 17.7034C148.861 18.5954 149.244 19.2659 149.739 19.7148C150.233 20.1579 150.812 20.3795 151.477 20.3795ZM166.373 20.3966V8.32839H169.424V20.3966H166.373ZM161.864 15.8881V12.8369H173.933V15.8881H161.864ZM191.453 17.4818V9.96475H195.084V23.0557H191.598V20.6778H191.462C191.166 21.4449 190.675 22.0613 189.987 22.5273C189.305 22.9932 188.473 23.2261 187.49 23.2261C186.615 23.2261 185.845 23.0273 185.18 22.6295C184.516 22.2318 183.996 21.6665 183.621 20.9335C183.251 20.2006 183.064 19.3227 183.058 18.3V9.96475H186.689V17.6523C186.695 18.425 186.902 19.0358 187.311 19.4846C187.72 19.9335 188.268 20.1579 188.956 20.1579C189.393 20.1579 189.803 20.0585 190.183 19.8596C190.564 19.6551 190.871 19.354 191.104 18.9562C191.342 18.5585 191.459 18.067 191.453 17.4818ZM208.88 13.6977L205.556 13.9023C205.499 13.6182 205.377 13.3625 205.19 13.1352C205.002 12.9023 204.755 12.7176 204.448 12.5812C204.147 12.4392 203.786 12.3682 203.366 12.3682C202.803 12.3682 202.329 12.4875 201.942 12.7261C201.556 12.9591 201.363 13.2716 201.363 13.6636C201.363 13.9761 201.488 14.2403 201.738 14.4562C201.988 14.6721 202.417 14.8454 203.025 14.9761L205.394 15.4534C206.667 15.7148 207.616 16.1352 208.241 16.7148C208.866 17.2943 209.178 18.0557 209.178 18.9988C209.178 19.8568 208.925 20.6096 208.42 21.2574C207.92 21.9051 207.232 22.4108 206.357 22.7744C205.488 23.1324 204.485 23.3113 203.349 23.3113C201.616 23.3113 200.235 22.9506 199.207 22.229C198.184 21.5017 197.585 20.5131 197.408 19.2631L200.979 19.0756C201.087 19.604 201.349 20.0074 201.763 20.2858C202.178 20.5585 202.71 20.6949 203.357 20.6949C203.994 20.6949 204.505 20.5727 204.891 20.3284C205.283 20.0784 205.482 19.7574 205.488 19.3653C205.482 19.0358 205.343 18.7659 205.07 18.5557C204.798 18.3398 204.377 18.175 203.809 18.0613L201.542 17.6096C200.263 17.354 199.312 16.9108 198.687 16.2801C198.067 15.6494 197.758 14.8454 197.758 13.8682C197.758 13.0273 197.985 12.3028 198.44 11.6949C198.9 11.0869 199.545 10.6182 200.374 10.2886C201.21 9.95907 202.187 9.7943 203.306 9.7943C204.96 9.7943 206.261 10.1437 207.21 10.8426C208.164 11.5415 208.721 12.4932 208.88 13.6977ZM217.43 23.3113C216.084 23.3113 214.925 23.0386 213.953 22.4932C212.987 21.942 212.243 21.1636 211.72 20.1579C211.197 19.1466 210.936 17.9506 210.936 16.5699C210.936 15.2233 211.197 14.0415 211.72 13.0244C212.243 12.0074 212.979 11.2148 213.928 10.6466C214.882 10.0784 216.001 9.7943 217.286 9.7943C218.149 9.7943 218.953 9.93351 219.697 10.2119C220.447 10.4846 221.101 10.8966 221.658 11.4477C222.22 11.9988 222.658 12.692 222.97 13.5273C223.283 14.3568 223.439 15.3284 223.439 16.442V17.4392H212.385V15.1892H220.021C220.021 14.6665 219.908 14.2034 219.68 13.8C219.453 13.3966 219.138 13.0812 218.734 12.854C218.337 12.621 217.874 12.5045 217.345 12.5045C216.794 12.5045 216.305 12.6324 215.879 12.888C215.459 13.138 215.129 13.4761 214.891 13.9023C214.652 14.3227 214.53 14.7915 214.524 15.3085V17.4477C214.524 18.0954 214.643 18.6551 214.882 19.1267C215.126 19.5983 215.47 19.9619 215.913 20.2176C216.357 20.4733 216.882 20.6011 217.49 20.6011C217.893 20.6011 218.263 20.5443 218.598 20.4307C218.933 20.317 219.22 20.1466 219.459 19.9193C219.697 19.692 219.879 19.4136 220.004 19.0841L223.362 19.3057C223.192 20.1125 222.842 20.817 222.314 21.4193C221.791 22.0159 221.115 22.4818 220.286 22.817C219.462 23.1466 218.51 23.3113 217.43 23.3113ZM225.808 23.0557V9.96475H229.328V12.2488H229.464C229.703 11.4363 230.104 10.8227 230.666 10.4079C231.229 9.98748 231.876 9.77725 232.609 9.77725C232.791 9.77725 232.987 9.78862 233.197 9.81135C233.408 9.83407 233.592 9.86532 233.751 9.9051V13.1267C233.581 13.0755 233.345 13.0301 233.044 12.9903C232.743 12.9506 232.467 12.9307 232.217 12.9307C231.683 12.9307 231.206 13.0471 230.786 13.2801C230.371 13.5074 230.041 13.8256 229.797 14.2346C229.558 14.6437 229.439 15.1153 229.439 15.6494V23.0557H225.808ZM246.521 13.6977L243.197 13.9023C243.14 13.6182 243.018 13.3625 242.83 13.1352C242.643 12.9023 242.396 12.7176 242.089 12.5812C241.788 12.4392 241.427 12.3682 241.006 12.3682C240.444 12.3682 239.969 12.4875 239.583 12.7261C239.197 12.9591 239.004 13.2716 239.004 13.6636C239.004 13.9761 239.129 14.2403 239.379 14.4562C239.629 14.6721 240.058 14.8454 240.665 14.9761L243.035 15.4534C244.308 15.7148 245.256 16.1352 245.881 16.7148C246.506 17.2943 246.819 18.0557 246.819 18.9988C246.819 19.8568 246.566 20.6096 246.06 21.2574C245.56 21.9051 244.873 22.4108 243.998 22.7744C243.129 23.1324 242.126 23.3113 240.989 23.3113C239.256 23.3113 237.876 22.9506 236.847 22.229C235.825 21.5017 235.225 20.5131 235.049 19.2631L238.62 19.0756C238.728 19.604 238.989 20.0074 239.404 20.2858C239.819 20.5585 240.35 20.6949 240.998 20.6949C241.634 20.6949 242.146 20.5727 242.532 20.3284C242.924 20.0784 243.123 19.7574 243.129 19.3653C243.123 19.0358 242.984 18.7659 242.711 18.5557C242.438 18.3398 242.018 18.175 241.45 18.0613L239.183 17.6096C237.904 17.354 236.952 16.9108 236.327 16.2801C235.708 15.6494 235.398 14.8454 235.398 13.8682C235.398 13.0273 235.626 12.3028 236.08 11.6949C236.54 11.0869 237.185 10.6182 238.015 10.2886C238.85 9.95907 239.827 9.7943 240.947 9.7943C242.6 9.7943 243.901 10.1437 244.85 10.8426C245.805 11.5415 246.362 12.4932 246.521 13.6977Z" fill="white"/>
<path d="M310 22.5557L302.5 15.0557L304.615 12.9257L310 18.3107L321.385 6.92566L323.5 9.05566M313 0.0556641C311.03 0.0556641 309.08 0.443651 307.26 1.19747C305.44 1.95129 303.786 3.05618 302.393 4.44906C299.58 7.26211 298 11.0774 298 15.0557C298 19.0339 299.58 22.8492 302.393 25.6623C303.786 27.0551 305.44 28.16 307.26 28.9139C309.08 29.6677 311.03 30.0557 313 30.0557C316.978 30.0557 320.794 28.4753 323.607 25.6623C326.42 22.8492 328 19.0339 328 15.0557C328 13.0858 327.612 11.1353 326.858 9.31541C326.104 7.49553 324.999 5.84194 323.607 4.44906C322.214 3.05618 320.56 1.95129 318.74 1.19747C316.92 0.443651 314.97 0.0556641 313 0.0556641Z" fill="#8CFB82"/>
<path d="M362.009 5.60112V23.0557H358.318V9.10396H358.216L354.219 11.6096V8.33691L358.54 5.60112H362.009ZM372.532 23.2943C371.327 23.2943 370.254 23.0727 369.31 22.6295C368.373 22.1863 367.629 21.5756 367.077 20.7971C366.526 20.0187 366.239 19.1267 366.217 18.121H369.796C369.836 18.7971 370.12 19.3454 370.648 19.7659C371.177 20.1863 371.805 20.3966 372.532 20.3966C373.112 20.3966 373.623 20.2687 374.066 20.0131C374.515 19.7517 374.864 19.3909 375.114 18.9307C375.37 18.4648 375.498 17.9307 375.498 17.3284C375.498 16.7148 375.367 16.175 375.106 15.7091C374.85 15.2432 374.495 14.8795 374.04 14.6182C373.586 14.3568 373.066 14.2233 372.481 14.2176C371.969 14.2176 371.472 14.3227 370.989 14.5329C370.512 14.7432 370.14 15.0301 369.873 15.3937L366.592 14.8057L367.418 5.60112H378.089V8.61816H370.461L370.009 12.9903H370.112C370.418 12.5585 370.881 12.2006 371.501 11.9165C372.12 11.6324 372.813 11.4903 373.58 11.4903C374.631 11.4903 375.569 11.7375 376.393 12.2318C377.217 12.7261 377.867 13.4051 378.344 14.2687C378.822 15.1267 379.058 16.1153 379.052 17.2346C379.058 18.4108 378.785 19.4562 378.234 20.371C377.688 21.2801 376.924 21.996 375.941 22.5187C374.964 23.0358 373.827 23.2943 372.532 23.2943ZM388.469 23.4392C387.004 23.4335 385.742 23.0727 384.685 22.3568C383.634 21.6409 382.825 20.604 382.256 19.246C381.694 17.8881 381.415 16.2545 381.421 14.3454C381.421 12.442 381.702 10.8199 382.265 9.47896C382.833 8.13805 383.643 7.11816 384.694 6.4193C385.751 5.71475 387.009 5.36248 388.469 5.36248C389.93 5.36248 391.185 5.71475 392.237 6.4193C393.293 7.12385 394.106 8.14657 394.674 9.48748C395.242 10.8227 395.523 12.442 395.518 14.3454C395.518 16.2602 395.234 17.8966 394.665 19.2545C394.103 20.6125 393.296 21.6494 392.245 22.3653C391.194 23.0812 389.935 23.4392 388.469 23.4392ZM388.469 20.3795C389.469 20.3795 390.268 19.8767 390.864 18.871C391.461 17.8653 391.756 16.3568 391.751 14.3454C391.751 13.0216 391.614 11.9193 391.342 11.0386C391.075 10.1579 390.694 9.496 390.2 9.05282C389.711 8.60964 389.134 8.38805 388.469 8.38805C387.475 8.38805 386.68 8.88521 386.083 9.87953C385.487 10.8738 385.185 12.3625 385.18 14.3454C385.18 15.6863 385.313 16.8057 385.58 17.7034C385.853 18.5954 386.237 19.2659 386.731 19.7148C387.225 20.1579 387.805 20.3795 388.469 20.3795ZM401.426 20.6693L401.332 21.6068C401.259 22.3568 401.116 23.104 400.906 23.8483C400.702 24.5983 400.486 25.2773 400.259 25.8852C400.037 26.4932 399.858 26.9704 399.722 27.317H397.369C397.455 26.9818 397.571 26.5131 397.719 25.9108C397.866 25.3142 398.006 24.6437 398.136 23.8994C398.267 23.1551 398.349 22.3966 398.384 21.6238L398.426 20.6693H401.426ZM410.852 23.4392C409.386 23.4335 408.125 23.0727 407.068 22.3568C406.017 21.6409 405.207 20.604 404.639 19.246C404.077 17.8881 403.798 16.2545 403.804 14.3454C403.804 12.442 404.085 10.8199 404.648 9.47896C405.216 8.13805 406.026 7.11816 407.077 6.4193C408.134 5.71475 409.392 5.36248 410.852 5.36248C412.313 5.36248 413.568 5.71475 414.619 6.4193C415.676 7.12385 416.489 8.14657 417.057 9.48748C417.625 10.8227 417.906 12.442 417.901 14.3454C417.901 16.2602 417.616 17.8966 417.048 19.2545C416.486 20.6125 415.679 21.6494 414.628 22.3653C413.577 23.0812 412.318 23.4392 410.852 23.4392ZM410.852 20.3795C411.852 20.3795 412.651 19.8767 413.247 18.871C413.844 17.8653 414.139 16.3568 414.134 14.3454C414.134 13.0216 413.997 11.9193 413.724 11.0386C413.457 10.1579 413.077 9.496 412.582 9.05282C412.094 8.60964 411.517 8.38805 410.852 8.38805C409.858 8.38805 409.063 8.88521 408.466 9.87953C407.869 10.8738 407.568 12.3625 407.562 14.3454C407.562 15.6863 407.696 16.8057 407.963 17.7034C408.236 18.5954 408.619 19.2659 409.114 19.7148C409.608 20.1579 410.188 20.3795 410.852 20.3795ZM427.376 23.4392C425.91 23.4335 424.648 23.0727 423.592 22.3568C422.54 21.6409 421.731 20.604 421.163 19.246C420.6 17.8881 420.322 16.2545 420.327 14.3454C420.327 12.442 420.609 10.8199 421.171 9.47896C421.739 8.13805 422.549 7.11816 423.6 6.4193C424.657 5.71475 425.915 5.36248 427.376 5.36248C428.836 5.36248 430.092 5.71475 431.143 6.4193C432.2 7.12385 433.012 8.14657 433.58 9.48748C434.148 10.8227 434.43 12.442 434.424 14.3454C434.424 16.2602 434.14 17.8966 433.572 19.2545C433.009 20.6125 432.202 21.6494 431.151 22.3653C430.1 23.0812 428.842 23.4392 427.376 23.4392ZM427.376 20.3795C428.376 20.3795 429.174 19.8767 429.771 18.871C430.367 17.8653 430.663 16.3568 430.657 14.3454C430.657 13.0216 430.521 11.9193 430.248 11.0386C429.981 10.1579 429.6 9.496 429.106 9.05282C428.617 8.60964 428.04 8.38805 427.376 8.38805C426.381 8.38805 425.586 8.88521 424.989 9.87953C424.393 10.8738 424.092 12.3625 424.086 14.3454C424.086 15.6863 424.219 16.8057 424.487 17.7034C424.759 18.5954 425.143 19.2659 425.637 19.7148C426.131 20.1579 426.711 20.3795 427.376 20.3795ZM442.271 20.3966V8.32839H445.322V20.3966H442.271ZM437.763 15.8881V12.8369H449.831V15.8881H437.763ZM458.957 23.0557V9.96475H462.417V12.2744H462.57C462.843 11.5074 463.298 10.9023 463.934 10.4591C464.57 10.0159 465.332 9.7943 466.218 9.7943C467.116 9.7943 467.88 10.0187 468.511 10.4676C469.141 10.9108 469.562 11.5131 469.772 12.2744H469.908C470.175 11.5244 470.658 10.925 471.357 10.4761C472.062 10.0216 472.894 9.7943 473.854 9.7943C475.076 9.7943 476.067 10.1835 476.829 10.9619C477.596 11.7346 477.979 12.8312 477.979 14.2517V23.0557H474.357V14.9676C474.357 14.2403 474.164 13.6949 473.778 13.3312C473.391 12.9676 472.908 12.7858 472.329 12.7858C471.67 12.7858 471.156 12.996 470.786 13.4165C470.417 13.8312 470.232 14.3795 470.232 15.0613V23.0557H466.712V14.8909C466.712 14.2488 466.528 13.7375 466.158 13.3568C465.795 12.9761 465.315 12.7858 464.718 12.7858C464.315 12.7858 463.951 12.8881 463.627 13.0926C463.309 13.2915 463.056 13.5727 462.869 13.9363C462.681 14.2943 462.587 14.7148 462.587 15.1977V23.0557H458.957ZM486.813 23.3113C485.467 23.3113 484.308 23.0386 483.336 22.4932C482.37 21.942 481.626 21.1636 481.103 20.1579C480.58 19.1466 480.319 17.9506 480.319 16.5699C480.319 15.2233 480.58 14.0415 481.103 13.0244C481.626 12.0074 482.362 11.2148 483.31 10.6466C484.265 10.0784 485.384 9.7943 486.668 9.7943C487.532 9.7943 488.336 9.93351 489.08 10.2119C489.83 10.4846 490.484 10.8966 491.04 11.4477C491.603 11.9988 492.04 12.692 492.353 13.5273C492.665 14.3568 492.822 15.3284 492.822 16.442V17.4392H481.768V15.1892H489.404C489.404 14.6665 489.29 14.2034 489.063 13.8C488.836 13.3966 488.521 13.0812 488.117 12.854C487.719 12.621 487.256 12.5045 486.728 12.5045C486.177 12.5045 485.688 12.6324 485.262 12.888C484.842 13.138 484.512 13.4761 484.273 13.9023C484.035 14.3227 483.913 14.7915 483.907 15.3085V17.4477C483.907 18.0954 484.026 18.6551 484.265 19.1267C484.509 19.5983 484.853 19.9619 485.296 20.2176C485.739 20.4733 486.265 20.6011 486.873 20.6011C487.276 20.6011 487.646 20.5443 487.981 20.4307C488.316 20.317 488.603 20.1466 488.842 19.9193C489.08 19.692 489.262 19.4136 489.387 19.0841L492.745 19.3057C492.575 20.1125 492.225 20.817 491.697 21.4193C491.174 22.0159 490.498 22.4818 489.668 22.817C488.844 23.1466 487.893 23.3113 486.813 23.3113ZM498.822 15.4875V23.0557H495.191V9.96475H498.651V12.2744H498.805C499.094 11.5131 499.58 10.9108 500.262 10.4676C500.944 10.0187 501.771 9.7943 502.742 9.7943C503.651 9.7943 504.444 9.99316 505.12 10.3909C505.796 10.7886 506.322 11.3568 506.697 12.0954C507.072 12.8284 507.259 13.7034 507.259 14.7204V23.0557H503.629V15.3682C503.634 14.567 503.43 13.942 503.015 13.4932C502.6 13.0386 502.029 12.8113 501.302 12.8113C500.813 12.8113 500.381 12.9165 500.006 13.1267C499.637 13.3369 499.347 13.6437 499.137 14.0471C498.933 14.4449 498.827 14.925 498.822 15.4875ZM517.084 9.96475V12.692H509.2V9.96475H517.084ZM510.99 6.82839H514.621V19.0329C514.621 19.3682 514.672 19.6295 514.774 19.817C514.876 19.9988 515.018 20.1267 515.2 20.2006C515.388 20.2744 515.604 20.3113 515.848 20.3113C516.018 20.3113 516.189 20.2971 516.359 20.2687C516.53 20.2346 516.661 20.2091 516.751 20.192L517.322 22.8937C517.141 22.9506 516.885 23.0159 516.555 23.0898C516.226 23.1693 515.825 23.2176 515.354 23.2346C514.479 23.2687 513.712 23.1523 513.053 22.8852C512.399 22.6182 511.891 22.2034 511.527 21.6409C511.163 21.0784 510.984 20.3682 510.99 19.5102V6.82839ZM525.223 23.3113C523.899 23.3113 522.754 23.0301 521.788 22.4676C520.828 21.8994 520.087 21.1096 519.564 20.0983C519.041 19.0812 518.78 17.9023 518.78 16.5613C518.78 15.2091 519.041 14.0273 519.564 13.0159C520.087 11.9988 520.828 11.2091 521.788 10.6466C522.754 10.0784 523.899 9.7943 525.223 9.7943C526.547 9.7943 527.689 10.0784 528.649 10.6466C529.615 11.2091 530.359 11.9988 530.882 13.0159C531.405 14.0273 531.666 15.2091 531.666 16.5613C531.666 17.9023 531.405 19.0812 530.882 20.0983C530.359 21.1096 529.615 21.8994 528.649 22.4676C527.689 23.0301 526.547 23.3113 525.223 23.3113ZM525.24 20.4988C525.842 20.4988 526.345 20.3284 526.749 19.9875C527.152 19.6409 527.456 19.1693 527.661 18.5727C527.871 17.9761 527.976 17.2971 527.976 16.5358C527.976 15.7744 527.871 15.0954 527.661 14.4988C527.456 13.9023 527.152 13.4307 526.749 13.0841C526.345 12.7375 525.842 12.5642 525.24 12.5642C524.632 12.5642 524.121 12.7375 523.706 13.0841C523.297 13.4307 522.987 13.9023 522.777 14.4988C522.572 15.0954 522.47 15.7744 522.47 16.5358C522.47 17.2971 522.572 17.9761 522.777 18.5727C522.987 19.1693 523.297 19.6409 523.706 19.9875C524.121 20.3284 524.632 20.4988 525.24 20.4988ZM534.027 23.0557V9.96475H537.547V12.2488H537.683C537.922 11.4363 538.322 10.8227 538.885 10.4079C539.447 9.98748 540.095 9.77725 540.828 9.77725C541.01 9.77725 541.206 9.78862 541.416 9.81135C541.626 9.83407 541.811 9.86532 541.97 9.9051V13.1267C541.8 13.0755 541.564 13.0301 541.263 12.9903C540.962 12.9506 540.686 12.9307 540.436 12.9307C539.902 12.9307 539.425 13.0471 539.004 13.2801C538.589 13.5074 538.26 13.8256 538.016 14.2346C537.777 14.6437 537.658 15.1153 537.658 15.6494V23.0557H534.027ZM554.739 13.6977L551.415 13.9023C551.359 13.6182 551.237 13.3625 551.049 13.1352C550.862 12.9023 550.614 12.7176 550.308 12.5812C550.006 12.4392 549.646 12.3682 549.225 12.3682C548.663 12.3682 548.188 12.4875 547.802 12.7261C547.415 12.9591 547.222 13.2716 547.222 13.6636C547.222 13.9761 547.347 14.2403 547.597 14.4562C547.847 14.6721 548.276 14.8454 548.884 14.9761L551.254 15.4534C552.526 15.7148 553.475 16.1352 554.1 16.7148C554.725 17.2943 555.038 18.0557 555.038 18.9988C555.038 19.8568 554.785 20.6096 554.279 21.2574C553.779 21.9051 553.092 22.4108 552.217 22.7744C551.347 23.1324 550.344 23.3113 549.208 23.3113C547.475 23.3113 546.094 22.9506 545.066 22.229C544.043 21.5017 543.444 20.5131 543.268 19.2631L546.839 19.0756C546.947 19.604 547.208 20.0074 547.623 20.2858C548.038 20.5585 548.569 20.6949 549.217 20.6949C549.853 20.6949 550.364 20.5727 550.751 20.3284C551.143 20.0784 551.342 19.7574 551.347 19.3653C551.342 19.0358 551.202 18.7659 550.93 18.5557C550.657 18.3398 550.237 18.175 549.668 18.0613L547.401 17.6096C546.123 17.354 545.171 16.9108 544.546 16.2801C543.927 15.6494 543.617 14.8454 543.617 13.8682C543.617 13.0273 543.844 12.3028 544.299 11.6949C544.759 11.0869 545.404 10.6182 546.234 10.2886C547.069 9.95907 548.046 9.7943 549.165 9.7943C550.819 9.7943 552.12 10.1437 553.069 10.8426C554.023 11.5415 554.58 12.4932 554.739 13.6977Z" fill="white"/>
</svg>
